<svg clip-rule="evenodd" fill-rule="evenodd" stroke-linejoin="round" stroke-miterlimit="2" viewBox="0 0 2400 2400" xmlns="http://www.w3.org/2000/svg"><g fill-rule="nonzero" transform="matrix(21.166752 0 0 21.166752 0 410.48544)"><g fill="#231f20"><path d="m31.197 47.995s-.714.082-.949-.732c-.054-.188-.518-2.24-.548-5.212.03-2.971.494-5.024.548-5.211.235-.816 1.027-.733 1.027-.733.7 0 .562-.723.562-.723h-3.646-.02-3.317c-.341 0-.468.723.232.723 0 0 .792-.083 1.028.733.053.187.517 2.24.547 5.211-.03 2.972-.494 5.024-.547 5.212-.236.814-.99.694-.99.694-.7 0-.703.761-.131.761h6.282c.613 0 .621-.723-.078-.723z"/><path d="m30.375 32.707c0 1.176-.954 2.13-2.131 2.13-1.176 0-2.13-.954-2.13-2.13 0-1.177.954-2.131 2.13-2.131 1.177 0 2.131.954 2.131 2.131z"/><path d="m47.852 47.995s-.713.082-.948-.732c-.055-.188-.518-2.24-.549-5.212.031-2.971.213-3.604.388-4.609.174-1.004.23-1.189.35-1.529.11-.304.082-.529-.507-.529h-1.74-.02-3.316c-.341 0-.468.723.232.723 0 0 .792-.083 1.027.733.054.187.517 2.24.548 5.211-.031 2.972-.494 5.024-.548 5.212-.235.814-.989.694-.989.694-.7 0-.703.761-.132.761h6.283c.612 0 .621-.723-.079-.723z"/><path d="m47.031 32.707c0 1.176-.954 2.13-2.131 2.13s-2.131-.954-2.131-2.13c0-1.177.954-2.131 2.131-2.131s2.131.954 2.131 2.131z"/><path d="m107.559 68.136c-.542.693-1.545.878-2.376.673-1.068-.262-1.919-1.48-2.292-2.441-.278-.717-.363-1.639-.411-2.401-.11-1.707.414-5.606 2.871-5.606 1.449 0 2.476 1.453 2.911 3.126.001 1.83.002 3.491.002 3.554-.006.627-.02 1.144-.038 1.585-.113.52-.352 1.107-.667 1.51zm5.319 2.759s-.792.081-1.027-.722c-.401-2.105-.548-4.826-.548-9.217 0-4.39.471-8.6.548-9.055.077-.453.114-.616.151-.87s-.111-.563-.681-.563h-1.527-.02-3.084c-.614 0-.621.713.078.713 0 0 .714-.082.949.72.051.176.473 2.015.54 4.712.001.04.002.758.003 1.757-.146.234-.324.357-.514.228 0 0-.939-.998-2.874-.998-1.934 0-5.122 2.685-5.122 7.294 0 4.608 2.211 7.076 4.182 7.076 2.81 0 3.437-2.501 3.891-2.082-.133.722-.19.901-.295 1.198-.111.299-.083.521.506.521h5.077c.34 0 .467-.712-.233-.712z"/><path d="m43.002 35.511-1.171-.126c-.718 0-3.641.007-4.007.007-.367 0-.335.325-.149.443 1.368.87 1.306 2.086 1.247 2.415-.314 1.316-1.212 2.974-1.53 3.589-.141.265-.395.33-.579.102-.943-1.815-1.327-4.11-1.402-5.015-.014-.29-.066-.618.351-.774.416-.155.405-.768.009-.768h-3.283-.02-1.942c-.757 0-.357.649.233 1.456.132.187 1.654 2.265 2.921 5.235 1.206 2.972 1.741 5.068 1.814 5.317.074.248.442 1.722.498 1.887.083.241.368.268.451.029.534-2.201 1.041-3.16 2.368-4.238.644-.535.101-.876-.221-1.05-.285-.17-.547-.387-.787-.64-.048-.141-.051-.321.068-.567.249-.516 1.667-4.017 2.109-4.708.443-.691 1.244-1.777 2.617-2.008.672-.166.405-.586.405-.586z"/><path d="m55.494 40.354c-.498.442-3.629 2.082-3.851 2.173-.221.093-.446.314-.737-.447l-.181-.405c-.112-.318-.218-.664-.316-1.045-.903-3.501 2.45-4.551 4.035-3.906 1.584.645 1.548 3.187 1.05 3.63zm3.888-1.604c-.48-1.99-4.855-5.444-9.388-1.685-4.698 4.089-1.428 11.745 3.621 11.745 5.048 0 5.619-3.943 5.361-5.159 0 0-.184-.829-.774 0-3.334 3.52-6.08.756-6.411-.147.7-.405 7.259-3.869 7.259-3.869s.442-.443.332-.885z"/><path d="m94.462 40.354c-.498.442-3.63 2.082-3.851 2.173-.221.093-.447.314-.737-.447l-.181-.405c-.113-.318-.219-.664-.316-1.045-.904-3.501 2.45-4.551 4.034-3.906 1.585.645 1.548 3.187 1.051 3.63zm3.887-1.604c-.479-1.99-4.855-5.444-9.387-1.685-4.698 4.089-1.428 11.745 3.62 11.745 5.049 0 5.62-3.943 5.362-5.159 0 0-.184-.829-.774 0-3.334 3.52-6.08.756-6.411-.147.699-.405 7.258-3.869 7.258-3.869s.443-.443.332-.885z"/><path d="m33.213 62.965c-.511.474-3.73 2.23-3.957 2.329-.227.1-.459.335-.758-.478l-.186-.435c-.115-.34-.224-.712-.325-1.12-.928-3.75 2.518-4.875 4.147-4.185 1.629.691 1.59 3.415 1.079 3.889zm3.996-1.718c-.493-2.132-4.99-5.833-9.648-1.806-4.829 4.382-1.468 12.583 3.721 12.583 5.188 0 5.775-4.223 5.51-5.526 0 0-.19-.889-.795 0-3.428 3.771-6.249.81-6.59-.158.719-.434 7.461-4.146 7.461-4.146s.454-.473.341-.947z"/><path d="m85.719 48.284c-.046-.153-.208-.289-.511-.289 0 0-.708.081-.946-.726-.035-.249.003-.518.085-.753.383-1.092.954-2.111 1.315-3.216.419-1.286.726-2.754.557-4.11-.13-1.053-.621-2.067-1.403-2.789-1.461-1.351-3.361-1.655-5.061-.581-.274.173-.812.64-1.157.627-.291-.006-.328-.178-.327-.357.019-.058.037-.115.06-.177.11-.304.083-.529-.507-.529h-1.739-.021-3.316c-.34 0-.468.723.232.723 0 0 .792-.083 1.028.733.053.187.517 2.24.548 5.211-.031 2.972-.495 5.024-.548 5.212-.14.482-.586.717-1.062.727-.316.007-.64-.02-.957-.036-.282-.015-.573-.068-.769-.29-.155-.174-.282-.415-.327-.642-.052-.267-.012-.564.078-.819.383-1.093.926-1.798 1.287-2.903.42-1.286.725-2.754.557-4.11-.131-1.053-.622-2.067-1.402-2.789-1.461-1.351-3.362-1.655-5.063-.581-.272.173-.81.64-1.155.627-.292-.006-.329-.178-.328-.357.019-.058.038-.115.061-.177.11-.304.082-.529-.507-.529h-1.739-.021-3.316c-.341 0-.468.723.231.723 0 0 .793-.083 1.027.733.055.187.519 2.24.548 5.211-.029 2.972-.493 5.024-.548 5.212-.234.814-.989.694-.989.694-.699 0-.703.761-.132.761h6.283c.613 0 .623-.723-.079-.723 0 0-.713.082-.948-.732-.054-.188-.517-2.24-.548-5.212.013-1.266-.126-2.839.637-3.93.375-.536.978-.993 1.65-1.031.494-.027.98.095 1.371.403 1.437 1.133 1.437 4.297.11 8.305-.843 2.376-.156 2.772-.083 2.847.067.063.286.082.451.082.166 0 4.807-.007 4.807-.009h6.036c.612 0 .622-.723-.078-.723 0 0-.714.082-.949-.732-.054-.188-.517-2.24-.548-5.212.012-1.266-.126-2.839.636-3.93.375-.536.978-.993 1.651-1.031.494-.027.98.095 1.37.403 1.437 1.133 1.437 4.297.111 8.305-.843 2.376-.157 2.772-.083 2.847.068.063.285.082.451.082s3.593-.007 3.593-.007l.009-.009c.31-.021.443-.234.388-.425.001 0 0-.001-.001-.002z"/><path d="m46.718 63.878c-1.249-.729-2.705-.904-4.029-1.447-1.059-.433-2.505-1.149-2.373-2.479.178-1.79 2.012-2.21 3.286-2.068.289.031 1.323.271.979.861-.548.378-.923.982-.923 1.67 0 1.147.98 1.966 2.149 1.966 1.168 0 2.066-.928 2.066-2.074 0-.495-.166-.925-.439-1.259-.002-.002-.003-.003-.004-.005-.058-.069-.119-.137-.186-.198-1.254-1.291-3.149-1.988-5.653-1.544-2.634.467-4.134 2.692-3.951 4.094.183 1.399.439 2.943 6.218 5.026 2.529.91 2.886 2.83 1.756 3.877-.555.516-1.476.797-2.359.771-1.12-.03-2.462-.281-2.312-.953.595-.332.995-.927.995-1.667 0-1.146-1.063-2.244-2.231-2.244-1.169 0-2.146 1.025-2.152 2.171-.003.534.19.975.499 1.309l-.012.003c.808 1.03 2.322 1.684 3.557 2.003 2.361.61 5.227-.182 6.608-2.253.389-.583.617-1.294.613-1.993-.01-1.477-.826-2.823-2.102-3.567z"/><path d="m57.392 64.766c-.498-.867-.977-.241-.589.442.261.487.318 1.133.378 1.673.106.956.045 2.192-.689 2.914-.205.202-.596.388-.888.388-1.105 0-1.639-.884-1.639-2.395 0-.886.003-5.39.006-9.053.199-.159.462-.253.786-.261.737-.019 1.244.386 1.751 1.124l.534-1.77s-1.575.001-2.533.001c-.231 0-.405-.068-.537-.17.001-2.088.002-3.703.002-3.846-.002.005-.007.002-.01.003-.009-.439-.431-.585-.556.148-.415 2.257-4.308 3.967-4.639 4.077-.332.11-.313.46.147.516.509.014 1.084-.388 1.306.655.006 2.772-.016 8.218-.016 8.76 0 .7.222 3.721 3.87 3.721 3.85 0 4.679-4.384 3.316-6.927z"/><path d="m75.66 57.821c-.25 0-1.218.005-1.218.005-.719 0-3.64.007-4.007.007-.366 0-.336.325-.149.442 1.368.872 1.307 2.087 1.248 2.416-.314 1.316-1.213 2.974-1.531 3.588-.141.266-.395.331-.578.104-.944-1.816-1.327-4.11-1.402-5.016-.014-.29-.067-.618.35-.773.416-.156.404-.769.009-.769h-3.283-.019-1.942c-.757 0 .02.649.61 1.456.059.082.314.535.691 1.27-.005.056-.01.103-.017.14-.315 1.316-1.213 2.974-1.531 3.588-.14.266-.394.331-.578.104-.944-1.816-1.327-4.11-1.402-5.016-.014-.29-.066-.618.35-.773.417-.156.405-.769.009-.769h-3.282-.02-1.942c-.757 0-.357.649.233 1.456.132.187 1.654 2.265 2.921 5.236 1.206 2.97 1.74 5.067 1.814 5.315.073.249.442 1.723.497 1.889.083.239.368.267.451.027.535-2.201 1.042-3.159 2.368-4.237.645-.534.102-.875-.22-1.05-.285-.17-.547-.388-.787-.64-.048-.141-.051-.321.068-.567.182-.379.993-2.36 1.587-3.663.395.812.855 1.806 1.333 2.926 1.206 2.97 1.741 5.067 1.814 5.315.075.249.443 1.723.498 1.889.083.239.369.267.451.027.535-2.201 1.042-3.159 2.368-4.237.645-.534.101-.875-.221-1.05-.285-.17-.547-.388-.786-.64-.049-.141-.051-.321.067-.567.249-.517 1.667-4.017 2.11-4.708.442-.69 1.253-1.814 2.626-2.045.19-.047.483-.096.598-.184.292-.221.166-.496-.156-.496z"/><path d="m63.656 59.137c-.23-.249-.802-.746-1.114-.756-.314-.009-.424-.57.074-.562.497.009 1.953.009 1.953.009l-.083 1.226"/><path d="m79.305 57.017c-.182-.276-.79-.079-1.093.084-1.146.618-2.217 1.337-3.067 2.339-1.675 1.974-2.431 5.002-1.65 7.5 1.326 4.237 6.079 6.337 9.433 4.114 2.173-1.443 3.115-4.083 3.035-6.618-.026-.803-.156-1.649-.391-2.418-.662-2.161-2.802-4.495-5.288-3.912-.691.162-1.793.685-2.22 1.28-.705.987.173.934.7.9 2.985-.034 4.348 2.95 4.753 4.277.487 1.588.875 4.729-1.215 5.435-1.809.611-3.576-1.046-4.533-2.469-.34-.505-.638-1.174-.884-1.731-1.511-3.428-.48-6.375 1.584-7.813.804-.543 1.004-.667.836-.968z"/><path d="m92.57 57.017c-.181-.276-.79-.079-1.094.084-1.144.618-2.215 1.337-3.066 2.339-1.675 1.974-2.431 5.002-1.649 7.5 1.326 4.237 6.079 6.337 9.432 4.114 2.174-1.443 3.115-4.083 3.035-6.618-.025-.803-.155-1.649-.39-2.418-.662-2.161-2.802-4.495-5.288-3.912-.692.162-1.793.685-2.22 1.28-.705.987.173.934.699.9 2.986-.034 4.349 2.95 4.754 4.277.486 1.588.875 4.729-1.216 5.435-1.808.611-3.575-1.046-4.532-2.469-.341-.505-.639-1.174-.885-1.731-1.51-3.428-.479-6.375 1.584-7.813.805-.543 1.004-.667.836-.968z"/><path d="m29.283 51.506h-.06c-.009 0-.016-.002-.025-.002-.283.004-1.469.007-1.469.007-.234.001-.675.002-1.192.003-1.07.002-2.299.005-2.529.005-.008 0-.013.002-.02.002-.39.001-.682.002-.787.002-.415.001-.379.369-.168.502 1.547.987 1.839 2.164 1.812 3.164-.022.812-1.347 7.308-2.035 10.091-.075.164-.219.205-.298-.006-.363-1.115-.666-2.435-1.039-3.782-.814-2.944-1.68-6.047-2.085-7.84h.003c-.009-.029-.015-.055-.023-.085-.031-.14-.059-.271-.084-.394-.052-.401.04-.698.356-.895.015-.007.032-.017.046-.024.203-.11.518-.161.635-.249.294-.223.167-.499-.159-.499h-.059c-.009 0-.015-.002-.026-.002-.282.004-1.468.007-1.468.007-.234.001-.675.002-1.192.003-1.07.002-2.299.005-2.529.005-.008 0-.013.002-.02.002-.39.001-.683.002-.788.002-.414.001-.378.369-.167.502.931.594 1.406 1.257 1.632 1.909.015.048.03.093.046.143l.411 1.372c.1.325.1.748.027 1.054h.003c-.574 2.188-1.671 6.152-2.194 8.389-.065.14-.181.191-.263.068-.321-1.047-.606-2.242-.945-3.468-.553-1.997-1.128-4.063-1.569-5.75-.175-1.209.485-1.234.885-1.685.352-.382-.111-.548-.265-.534-1.716.056-3.206-2.221-6.106-2.974-.28-.072-.578-.081-.877-.081-2.595 0-4.698 2.089-4.698 4.665 0 2.287 1.472 4.129 3.661 4.513.816.124 2.529-.208 3.019-1.764 0 0 .215-.639-.103-.722-.304-.035-.338.313-.421.659-.18.673-1.182 1.479-2.531 1.187-1.608-.347-2.879-1.723-2.879-3.437 0-1.929 1.579-3.609 3.519-3.495.205.013 1.609.112 2.208 1.45 1.163 3.516 3.813 13.193 4.637 17.807.173.973.244 2.235.295 2.425.018.295.396.329.506.064.759-2.457 1.712-3.707 3.285-4.834.765-.559.694-.427-.175-1.206-.232-.205-.435-.469-.619-.78-.15-.294-.138-.514-.098-.771.361-1.721 1.469-5.645 2.089-8.024l.002.003c.051-.229.332-.227.421-.039l.041.14c1.284 4.479 2.797 10.267 3.188 13.058.137.979.153 2.199.203 2.389.077.277.396.329.507.064.759-2.457 1.712-3.707 3.284-4.834.766-.559.695-.427-.174-1.206-.148-.13-.284-.284-.411-.459-.185-.279-.187-.547-.144-.81.528-2.446 1.738-7.971 2.115-9.198.402-1.307 1.203-3.167 2.49-4.443.306-.287.651-.505.891-.616.203-.11.518-.161.635-.249.294-.223.167-.499-.158-.499z"/><path d="m27.661 29.392h-.059c-.009 0-.016-.002-.025-.002-.283.004-1.47.007-1.47.007-.233.001-.675.002-1.191.002-1.07.003-2.299.005-2.529.005-.008 0-.013.002-.02.002-.39.002-.683.003-.788.003-.414.001-.378.367-.168.5 1.547.982 1.84 2.153 1.812 3.148-.019.717-1.572 5.901-2.403 8.995-.056.036-.119.032-.17-.043-.321-1.042-.816-2.212-1.156-3.432-.552-1.987-1.127-4.045-1.567-5.722-.177-1.204.484-1.229.883-1.678.353-.38-.11-.546-.264-.531-1.716.055-3.206-2.211-6.107-2.961-.279-.072-.577-.08-.876-.08-2.595 0-4.698 2.078-4.698 4.643 0 2.276 1.472 4.109 3.662 4.491.815.124 2.529-.208 3.019-1.755 0 0 .214-.636-.104-.719-.304-.034-.338.311-.421.657-.18.67-1.182 1.471-2.531 1.181-1.608-.345-2.879-1.715-2.879-3.42 0-1.922 1.579-3.593 3.519-3.479.205.012 1.61.111 2.208 1.443 1.163 3.499 4.023 13.11 4.846 17.703.174.967.31 1.625.36 1.815.018.294.396.328.507.064.758-2.446 1.647-3.091 3.22-4.213.765-.557.695-.426-.175-1.2-.232-.204-.435-.467-.619-.777-.073-.141-.107-.265-.118-.386.656-2.673 2.102-7.371 2.445-8.482.402-1.3 1.203-3.152 2.49-4.421.305-.287.651-.503.891-.613.203-.111.518-.161.634-.249.295-.221.168-.496-.158-.496z"/></g><path d="m56.2 22.181c-1.524 0-2.902-.455-4.097-1.352-.131-.099-.158-.286-.059-.418s.285-.158.418-.06c1.089.819 2.346 1.234 3.738 1.234 1.352 0 2.641-.422 3.728-1.22.132-.097.319-.069.417.064.097.133.069.32-.064.417-1.19.874-2.601 1.335-4.081 1.335z" fill="#030405"/><path d="m50.765 19.321c-.094 0-.187-.044-.245-.128-.799-1.145-1.222-2.499-1.222-3.914 0-3.805 3.096-6.901 6.902-6.901s6.901 3.096 6.901 6.901c0 1.38-.405 2.712-1.172 3.851-.092.137-.277.174-.414.081-.137-.092-.173-.277-.082-.414.702-1.041 1.072-2.257 1.072-3.518 0-3.476-2.828-6.305-6.305-6.305s-6.305 2.829-6.305 6.305c0 1.311.375 2.513 1.115 3.573.094.135.061.321-.074.416-.052.036-.111.053-.171.053z" fill="#030405"/><g fill="#030505"><path d="m56.265 14.933c-.71 0-1.287.578-1.287 1.288s.577 1.287 1.287 1.287 1.288-.577 1.288-1.287-.578-1.288-1.288-1.288zm0 3.098c-.998 0-1.81-.812-1.81-1.81s.812-1.81 1.81-1.81 1.81.812 1.81 1.81-.812 1.81-1.81 1.81z"/><path d="m54.961 15.478c-.165 0-.299-.133-.299-.298v-6.363c0-.164.134-.298.299-.298s.299.134.299.298v6.363c0 .165-.134.298-.299.298z"/><path d="m57.569 15.551c-.165 0-.298-.133-.298-.298v-6.415c0-.165.133-.299.298-.299s.298.134.298.299v6.415c0 .165-.133.298-.298.298z"/><path d="m56.273 18.172c-2.417 0-4.865-.569-6.58-1.712-.137-.091-.175-.277-.083-.414s.277-.174.414-.083c3.238 2.158 9.499 2.127 12.407-.063.131-.099.318-.072.417.06.1.131.074.318-.058.418-1.587 1.194-4.036 1.794-6.517 1.794z"/><path d="m57.598 15.628c-.153 0-.284-.118-.297-.273-.015-.164.107-.309.271-.323 2.258-.198 3.901-.955 4.883-1.555.142-.088.325-.042.411.099.086.14.041.324-.1.41-1.035.633-2.768 1.432-5.142 1.641-.009 0-.017.001-.026.001z"/><path d="m54.802 15.672c-.012 0-.023-.001-.036-.002-1.678-.196-3.294-.726-4.939-1.618-.145-.079-.198-.26-.12-.405.079-.145.26-.198.405-.12 1.577.855 3.122 1.363 4.724 1.55.164.02.281.168.262.331-.018.153-.147.264-.296.264z"/><path d="m56.747 9.982c0 .271-.22.491-.491.491-.272 0-.492-.22-.492-.491 0-.272.22-.493.492-.493.271 0 .491.221.491.493z"/><path d="m56.747 11.624c0 .271-.22.491-.491.491-.272 0-.492-.22-.492-.491 0-.272.22-.493.492-.493.271 0 .491.221.491.493z"/><path d="m56.747 13.263c0 .272-.22.492-.491.492-.272 0-.492-.22-.492-.492s.22-.491.492-.491c.271 0 .491.219.491.491z"/><path d="m59.963 16.246c0 .272-.212.492-.474.492s-.474-.22-.474-.492c0-.271.212-.492.474-.492s.474.221.474.492z"/><path d="m61.812 15.589c0 .272-.212.491-.474.491-.261 0-.473-.219-.473-.491s.212-.492.473-.492c.262 0 .474.22.474.492z"/><path d="m53.496 16.229c0 .271-.212.491-.473.491s-.474-.22-.474-.491c0-.272.213-.492.474-.492s.473.22.473.492z"/><path d="m51.641 15.609c0 .272-.211.492-.473.492s-.474-.22-.474-.492c0-.271.212-.491.474-.491s.473.22.473.491z"/><path d="m49.672 13.03c-5.823.734-8.436 2.276-8.436 3.506 0 1.877 6.056 3.888 15.071 3.888s15.071-2.011 15.071-3.888c0-1.456-3.54-2.885-8.667-3.52l.122.377c2.106.368 5.42 1.214 5.42 2.888 0 2.211-6.211 3.405-12.055 3.405s-12.056-1.194-12.056-3.405c0-1.684 3.31-2.528 5.413-2.893zm6.635 7.991c-7.702 0-15.668-1.678-15.668-4.485 0-1.921 3.525-3.474 9.429-4.155l.463-.053-.521 1.589-.178.03c-3.759.626-5.092 1.649-5.092 2.334 0 1.328 4.705 2.807 11.458 2.807 6.752 0 11.458-1.479 11.458-2.807 0-.68-1.336-1.698-5.1-2.33l-.179-.03-.52-1.605.46.052c4.669.526 9.657 1.897 9.657 4.168 0 2.807-7.965 4.485-15.667 4.485z"/><path d="m58.606 9.441c-1.013-.821-1.933-2.724-1.485-3.546.126-.233.328-.376.581-.414.585-.092 1.363.433 1.88.852v-2.772c-.786.636-1.62 1.024-2.322.316-.554-.561.067-1.891.52-2.68h-3.063c.802 1.442.82 2.297.543 2.625-.492.584-1.211.501-2.298-.277v2.812c.504-.406 1.278-.921 1.864-.846.26.035.471.176.609.407.587.99-.679 2.62-1.52 3.427l-.413-.43c.945-.907 1.734-2.162 1.419-2.692-.044-.074-.094-.109-.174-.12-.432-.057-1.36.625-1.876 1.128l-.506.495v-5.417l.487.398c1.52 1.243 1.844.859 1.95.733.063-.104.108-.819-.861-2.385l-.282-.455h5.198l-.297.46c-.604.938-1.107 2.162-.875 2.397.271.273.667.463 1.992-.774l.502-.469v5.485l-.507-.49c-.528-.511-1.454-1.203-1.881-1.138-.057.009-.103.031-.146.109-.227.416.372 2.015 1.337 2.796z"/><path d="m56.235 3.598c-.67 0-1.215.544-1.215 1.213 0 .67.545 1.215 1.215 1.215.669 0 1.213-.545 1.213-1.215 0-.669-.544-1.213-1.213-1.213zm0 2.95c-.958 0-1.737-.779-1.737-1.737 0-.957.779-1.736 1.737-1.736.957 0 1.736.779 1.736 1.736 0 .958-.779 1.737-1.736 1.737z"/></g></g></svg>